<svg width="30" height="31" viewBox="0 0 30 31" fill="none" xmlns="http://www.w3.org/2000/svg">
<path d="M16.4062 0.0499051C23.9121 0.0499051 30 6.1378 30 13.6437C30 14.423 29.373 15.0499 28.5938 15.0499C27.8145 15.0499 27.1875 14.423 27.1875 13.6437C27.1875 7.69053 22.3594 2.86241 16.4062 2.86241C15.627 2.86241 15 2.23545 15 1.45616C15 0.676858 15.627 0.0499051 16.4062 0.0499051ZM16.875 11.2999C17.3723 11.2999 17.8492 11.4974 18.2008 11.8491C18.5525 12.2007 18.75 12.6776 18.75 13.1749C18.75 13.6722 18.5525 14.1491 18.2008 14.5007C17.8492 14.8524 17.3723 15.0499 16.875 15.0499C16.3777 15.0499 15.9008 14.8524 15.5492 14.5007C15.1975 14.1491 15 13.6722 15 13.1749C15 12.6776 15.1975 12.2007 15.5492 11.8491C15.9008 11.4974 16.3777 11.2999 16.875 11.2999ZM15 7.08115C15 6.30186 15.627 5.6749 16.4062 5.6749C20.8066 5.6749 24.375 9.24326 24.375 13.6437C24.375 14.423 23.748 15.0499 22.9688 15.0499C22.1895 15.0499 21.5625 14.423 21.5625 13.6437C21.5625 10.796 19.2539 8.4874 16.4062 8.4874C15.627 8.4874 15 7.86045 15 7.08115ZM6.88477 0.131936C8.02148 -0.17861 9.21094 0.401468 9.66211 1.49131L12.0059 7.11631C12.4043 8.07139 12.1289 9.17881 11.3262 9.8292L8.4375 12.1964C10.3887 16.3214 13.7285 19.6612 17.8535 21.6124L20.2148 18.7237C20.8711 17.921 21.9727 17.6456 22.9277 18.044L28.5527 20.3878C29.6426 20.839 30.2227 22.0284 29.9121 23.1651L28.5059 28.3214C28.2305 29.3409 27.3047 30.0499 26.25 30.0499C11.7539 30.0499 0 18.296 0 3.7999C0 2.74522 0.708984 1.81944 1.72852 1.53819L6.88477 0.131936Z" fill="black"/>
</svg>
